<svg xmlns="http://www.w3.org/2000/svg" xmlns:xlink="http://www.w3.org/1999/xlink" viewBox="0 0 1140.48 329.54"><defs><style>.cls-1{fill:none;}.cls-2{fill:#27486d;}.cls-3{fill:#bbb9b9;}.cls-4{fill:#787679;}.cls-5{fill:#cb2a2c;}.cls-6{fill:#a52b2e;}.cls-7{fill:#d0d1d0;}.cls-8{fill:#fff;}.cls-9{fill:#aa2a2f;}.cls-10{fill:#862629;}.cls-11{clip-path:url(#clip-path);}.cls-12{fill:url(#radial-gradient);}.cls-13{fill:#6d6e71;}</style><clipPath id="clip-path"><path class="cls-1" d="M266.33,117.21a5.94,5.94,0,0,0,5.88,6h.12a6,6,0,1,0,0-11.94,5.91,5.91,0,0,0-6,5.82s0,.07,0,.11"/></clipPath><radialGradient id="radial-gradient" cx="227.71" cy="1073.51" r="11.67" gradientTransform="translate(41.45 -972.29) scale(1.01)" gradientUnits="userSpaceOnUse"><stop offset="0" stop-color="#fff"/><stop offset="1" stop-color="#231f20"/></radialGradient></defs><title>logo-tagline-2</title><g id="Layer_2" data-name="Layer 2"><g id="Layer_1-2" data-name="Layer 1"><g id="Layer_2-2" data-name="Layer 2"><g id="图层_1" data-name="图层 1"><path class="cls-2" d="M366.14,105.58a88.08,88.08,0,0,0-2.75-11.29l-7.8.9,6.93-3.44a90.28,90.28,0,0,0-4.75-11.3l-7.18,2.3,5.87-4.63A70.12,70.12,0,0,0,350,67.77l-6.57,3.66,4.93-5.83a76.1,76.1,0,0,0-7.79-9l-5.62,4.15,3.89-5.88A107.61,107.61,0,0,0,329.39,47l-4.76,4.88,2.77-6.27A100,100,0,0,0,317,39.4l-4.16,5.71,1.91-6.84a85.61,85.61,0,0,0-11.15-4.45l-3.29,6.1,1-6.88a98.72,98.72,0,0,0-12-2.81l-2.07,6.36-.37-6.73A105.54,105.54,0,0,0,274,29a91.64,91.64,0,0,0-13.77,1v7.1l-2.51-6.7a93.94,93.94,0,0,0-11.49,2.73L247,40l-3.2-6a89.66,89.66,0,0,0-11.18,4.54l2.08,6.66-4.32-5.49A113.26,113.26,0,0,0,219.8,46l3.1,5.62L218,47.4a88.11,88.11,0,0,0-19,18.82l5,5-6.59-2.91a106.14,106.14,0,0,0-6.2,10L197,82.78l-7-2.16A98.86,98.86,0,0,0,185.19,92l6.41,3-7.18-.67a106.88,106.88,0,0,0-2.85,11.6l7.28,2.16-7.72.48a100.56,100.56,0,0,0-.94,13.5,96.35,96.35,0,0,0,.94,13.23l7.62-.18L181.56,138a104.46,104.46,0,0,0,2.77,11.55l7.44-1.2-6.58,3.75a86.83,86.83,0,0,0,4.67,11.29L196.7,161l-5.62,4.63a105.28,105.28,0,0,0,6.14,9.94l6.92-3.11-5.37,5.27a99.6,99.6,0,0,0,8,9.35l6-4.51L208.71,189a90.39,90.39,0,0,0,9,7.57l5.28-4.92L219.8,198a91.42,91.42,0,0,0,10.46,6.45l4.4-5.67-2.07,6.84a91.55,91.55,0,0,0,11.16,4.53l3.29-6.62-.78,7.47A100.11,100.11,0,0,0,258,213.83l2.07-6.58.43,6.86a90.22,90.22,0,0,0,13.42,1,99,99,0,0,0,13-.92l.26-7.3,2.35,6.93A117.45,117.45,0,0,0,301.35,211l-1-7.24,3.45,6.41a94.11,94.11,0,0,0,11.2-4.49l-2.26-7,4.59,5.76a96.82,96.82,0,0,0,10.3-6.24l-3.37-6.82,5.52,5.26a92.33,92.33,0,0,0,19.12-18.86l-5.26-5.1,6.73,3a81.24,81.24,0,0,0,6.32-10.24l-6.32-4.36,7.63,2c1.72-3.55,3.28-7.28,4.67-11l-6.58-3.42,7.36,1A88.94,88.94,0,0,0,366.24,138l-7.7-2.69,8.12-.16a94.48,94.48,0,0,0,1-13,89.32,89.32,0,0,0-1-13.59l-8.22-.12Zm-92,92.29c-41.51,0-75-34-75-76S232.61,46,274.14,46s75,34,75,75.84-33.56,76-75,76"/><polyline id="_Path_" data-name=" Path " class="cls-3" points="216.51 173.51 300.58 124.25 300.15 90.26"/><polygon id="_Path_2" data-name=" Path 2" class="cls-4" points="216.51 173.51 300.41 90.7 274.55 79.97 274.19 79.58 273.07 79.92 216.51 173.51"/><polyline id="_Path_3" data-name=" Path 3" class="cls-3" points="334.24 56.48 250.23 105.74 250.67 139.7"/><polygon id="_Path_4" data-name=" Path 4" class="cls-4" points="327.92 62.58 249.63 140.09 269.88 156.04 270.22 156.47 271.34 156.18 327.92 62.58"/><polyline id="_Path_5" data-name=" Path 5" class="cls-4" points="391.21 117.85 305.69 138.88 287.18 134.13 279.3 118.77"/><polygon id="_Path_6" data-name=" Path 6" class="cls-4" points="272.38 0 272.38 117.85 298.15 106.96 298.77 106.96 299.37 105.92 272.38 0"/><polygon id="_Path_7" data-name=" Path 7" class="cls-3" points="287.18 103.06 296.34 93.99 391.21 117.85 278 118.77 287.18 103.06"/><polygon id="_Path_8" data-name=" Path 8" class="cls-3" points="294 152.98 272.81 235.92 272.47 119.29 294 152.98"/><polyline id="_Path_9" data-name=" Path 9" class="cls-4" points="268.32 121.7 248.59 141.73 272.81 235.92 272.81 118.77"/><polyline id="_Path_10" data-name=" Path 10" class="cls-3" points="154.31 117.81 248.59 141.73 272.29 117.21"/><polygon id="_Path_11" data-name=" Path 11" class="cls-4" points="154.31 117.81 272.2 117.81 261.32 91.99 261.32 91.43 260.28 90.82 154.31 117.81"/><polyline id="_Path_12" data-name=" Path 12" class="cls-3" points="272.38 0 248.43 94.23 272.99 117.89"/><polygon id="_Path_13" data-name=" Path 13" class="cls-5" points="287.18 103.06 173.94 18.6 272.29 117.81 287.18 103.06"/><polygon id="_Path_14" data-name=" Path 14" class="cls-6" points="257.95 132.13 272.29 117.81 173.94 18.6 257.95 132.13"/><polygon id="_Path_15" data-name=" Path 15" class="cls-7" points="257.95 131.91 371.17 216.38 272.81 117.21 257.95 131.91"/><polygon id="_Path_16" data-name=" Path 16" class="cls-8" points="287.18 103.06 272.81 117.17 371.25 216.69 287.18 103.06"/><path id="_Path_17" data-name=" Path 17" class="cls-9" d="M272.13,117.89l8.48-8.38a11.67,11.67,0,0,0-8-3.24,11.38,11.38,0,0,0-8,3.36"/><path id="_Path_18" data-name=" Path 18" class="cls-10" d="M264.68,109.71a11.72,11.72,0,0,0-3.35,8.06,11.31,11.31,0,0,0,3.19,7.89l7.69-7.7"/><path id="_Path_19" data-name=" Path 19" class="cls-8" d="M272.81,117.17l-8.38,8.38a11.32,11.32,0,0,0,7.86,3.21,11.65,11.65,0,0,0,8.14-3.33"/><path id="_Path_20" data-name=" Path 20" class="cls-8" d="M280.43,125.43a11.24,11.24,0,0,0,3.28-8,11.07,11.07,0,0,0-3.1-7.89l-7.8,7.67"/><g class="cls-11"><rect id="_Path_21" data-name=" Path 21" class="cls-12" x="266.33" y="111.28" width="11.93" height="11.94"/></g><path id="_Path_22" data-name=" Path 22" class="cls-2" d="M964.9,78.37h21.35s3-47.63-61.83-47.63-65.41,52.76-53,67c12.56,14.19,30.19,24.52,58.21,29.71s41.1,24.48,39.46,35.77-13.84,38.4-47,34.81-39.9-21.61-41.09-34.85l-21.8.34s7.09,53.21,63.47,53.55,69.81-41,69.81-53.24-3.71-40.69-52.32-51.94S884.8,86.71,889.72,68c4.68-21.92,65.5-38.32,75.19,10.38"/><path id="_Path_23" data-name=" Path 23" class="cls-2" d="M168.07,176.63c-16.18,26.29-44.56,43.69-76.81,43.69C40.92,220.32,0,177.88,0,125.55s40.92-94.8,91.26-94.8c30.19,0,57,15.32,73.6,38.84l-13.23,11C138.14,61,116.08,48.28,91.26,48.28,50.26,48.28,17,82.9,17,125.55s33.22,77.32,74.22,77.32c26.55,0,49.9-14.62,63-36.49Z"/><path class="cls-2" d="M642.87,37.29H592.43V213.83h20.76V139.39h26.39c12.1,0,77.4-1.17,77.4-52.5s-63.4-49.6-74.11-49.6m-3.38,84.19H613.87V54.63h23.54c39,0,55.89,10.06,55.89,37.69S650,121.47,639.5,121.47"/><polygon id="_Path_24" data-name=" Path 24" class="cls-2" points="387.77 215.59 409.4 215.59 422.2 93.37 479.37 217.07 536.72 89.32 550.23 217.07 569.24 217.07 546.84 29.03 479.37 175.76 413.81 25.34 387.77 215.59"/><path class="cls-2" d="M836.88,213.83h23.78L778.4,25.34,693.46,213.83h21.46l27.87-60.43h68.5ZM752,133.21,778.4,75.9l24.31,57.31Z"/><path id="_Path_25" data-name=" Path 25" class="cls-2" d="M1112.81,77.67h21.36s3.11-47.61-61.77-47.61S1007.1,82.78,1019.55,97s30,24.48,58.15,29.63,41,24.52,39.33,35.85-13.83,38.37-46.86,34.83-39.9-21.56-41.1-34.83l-21.8.32s7.18,53.27,63.49,53.58,69.72-41,69.72-53.28-3.8-40.62-52.41-51.95S1032.89,86,1037.82,67.29c4.66-22,65.37-38.26,75,10.38"/><path class="cls-13" d="M252.87,268.6h4.56l-22.49,60.12H231.2L208.82,268.6h4.48l15.13,40.91q3.45,9.27,4.65,13.91.82-3.1,3.24-9.59Z"/><path class="cls-13" d="M298.79,328.71H265.94V268.6h32.85v3.87H270.13V295.2H297.2v3.87H270.13v25.78H298.8Z"/><path class="cls-13" d="M356.13,328.71h-4.23l-35.62-53.37h-.33q.49,9.54.49,14.39v39h-4V268.6h4.18l35.59,53.29h.25q-.37-7.4-.37-14.06V268.6h4.07Z"/><path class="cls-13" d="M388.81,328.71h-4.24V272.54H365V268.6h43.3v4H388.81Z"/><path class="cls-13" d="M461.47,268.6v38.9q0,10.36-6,16.2t-16.74,5.84q-10.45,0-16.3-5.86t-5.86-16.35V268.6h4.23v38.9q0,8.68,4.82,13.51t13.58,4.82q8.59,0,13.32-4.75t4.73-13.18V268.6Z"/><path class="cls-13" d="M482,302.52v26.19h-4.18V268.6h14.31q11.17,0,16.52,4.13T514,285.17a16.25,16.25,0,0,1-3.19,10.2q-3.19,4.17-9.69,6l16.33,27.39h-5L497,302.57Zm0-3.62h11.48q7.61,0,11.81-3.4t4.19-10q0-6.85-4.11-10T492,272.37H482Z"/><path class="cls-13" d="M560.73,328.71H527.88V268.6h32.85v3.87H532.05V295.2h27.07v3.87H532.05v25.78h28.67Z"/><path class="cls-13" d="M607.51,313.22A14.42,14.42,0,0,1,602,325.14q-5.54,4.41-14.7,4.4-11,0-16.9-2.43v-4.19q6.48,2.76,16.57,2.75,7.4,0,11.74-3.39a10.77,10.77,0,0,0,4.33-8.9,10.27,10.27,0,0,0-1.44-5.66,13.09,13.09,0,0,0-4.69-4.09,58.58,58.58,0,0,0-9.54-4q-9.21-3.15-12.73-6.84a14.65,14.65,0,0,1,1.77-20.8q5.28-4.25,13.59-4.26A39.84,39.84,0,0,1,605.9,271l-1.53,3.62a37.12,37.12,0,0,0-14.31-3.13q-6.66,0-10.61,3.08a10.07,10.07,0,0,0-4,8.39,9.67,9.67,0,0,0,5.18,9.31,53.93,53.93,0,0,0,9.46,4.09A51.21,51.21,0,0,1,600.73,301a15.15,15.15,0,0,1,5.16,5.18A14.13,14.13,0,0,1,607.51,313.22Z"/><path class="cls-13" d="M683.25,298.41H705.4v27.42a49.68,49.68,0,0,1-19.61,3.7q-14.23,0-21.8-8t-7.6-22.75a34.23,34.23,0,0,1,3.81-16.3,26.47,26.47,0,0,1,10.78-11,32.89,32.89,0,0,1,16.1-3.86,41.5,41.5,0,0,1,17.64,3.62L703,275a38.17,38.17,0,0,0-16.21-3.62q-11.87,0-18.84,7.34t-7,19.8q0,13.57,6.62,20.41t19.46,6.84a37.38,37.38,0,0,0,14.09-2.35V302.36H683.25Z"/><path class="cls-13" d="M724.7,302.52v26.19h-4.18V268.6h14.31c7.44,0,13,1.38,16.52,4.13s5.36,6.91,5.36,12.44a16.26,16.26,0,0,1-3.2,10.2q-3.18,4.17-9.69,6l16.38,27.34h-5l-15.5-26.19Zm0-3.62h11.5q7.59,0,11.81-3.4c2.81-2.27,4.19-5.59,4.19-10s-1.37-7.9-4.11-10-7.22-3.13-13.4-3.13h-10Z"/><path class="cls-13" d="M821.1,298.58q0,14.31-7.16,22.63t-19.73,8.33q-12.53,0-19.68-8.32t-7.16-22.73q0-14.34,7.22-22.59t19.72-8.24q12.58,0,19.7,8.28T821.1,298.58Zm-49.18,0q0,12.91,5.76,20t16.53,7q10.86,0,16.59-7t5.74-20q0-13-5.74-19.93t-16.5-6.93q-10.75,0-16.56,7T771.92,298.58Z"/><path class="cls-13" d="M879.1,268.6v38.9q0,10.36-6,16.2t-16.74,5.84q-10.44,0-16.3-5.86t-5.85-16.35V268.6h4.24v38.9q0,8.68,4.81,13.51t13.62,4.83q8.58,0,13.32-4.75c3.14-3.16,4.73-7.56,4.73-13.18V268.6Z"/><path class="cls-13" d="M931.65,285.87q0,8.72-5.92,13.37T909,303.88h-9.3v24.84h-4.19V268.6H910.2Q931.64,268.6,931.65,285.87Zm-32,14.39h8.26c6.78,0,11.66-1.11,14.69-3.35s4.51-5.86,4.51-10.87q0-7-4.28-10.3c-2.85-2.24-7.27-3.35-13.23-3.35h-10Z"/></g></g></g></g></svg>