<svg xmlns="http://www.w3.org/2000/svg" viewBox="0 0 457.82 154.92"><defs><style>.cls-1{fill:#775ca4;}</style></defs><g id="Layer_2" data-name="Layer 2"><g id="Layer_1-2" data-name="Layer 1"><path class="cls-1" d="M59.64,141.2l-1.89,7.94A5,5,0,0,1,52.86,153H5A5,5,0,0,1,.11,147l1.37-6.53A5,5,0,0,1,2,139.11L61.7,26.41A5,5,0,0,0,57.26,19H42.41a5,5,0,0,1-4.89-6.17l1.71-7.29a5,5,0,0,1,4.89-3.87H85.61a5,5,0,0,1,4.92,6L89.5,13A5.09,5.09,0,0,1,89,14.34L29.26,127.66A5,5,0,0,0,33.7,135h21A5,5,0,0,1,59.64,141.2Z"/><path class="cls-1" d="M107.71,87.76l-9.44,40.68a5,5,0,0,0,4.89,6.16h20.1a5,5,0,0,1,4.89,6.15l-1.94,8.36a5,5,0,0,1-4.89,3.89H78.76a5,5,0,0,1-4.89-6.15l32.56-141a5,5,0,0,1,4.89-3.89h38.3a5,5,0,0,1,4.9,6.12L152.73,16a5,5,0,0,1-4.9,3.92H127.37a5,5,0,0,0-4.9,3.88l-8.36,36A5,5,0,0,0,119,65.91h13.43a5,5,0,0,1,4.89,6.18L135.43,80a5,5,0,0,1-4.89,3.86H112.61A5,5,0,0,0,107.71,87.76Z"/><path class="cls-1" d="M215.09,38.43h-7.27A5,5,0,0,1,203,32.1h0q.86-3.44,1.17-5.14a18,18,0,0,0,.33-3.42c0-3.28-.9-5.42-2.68-6.42a10.37,10.37,0,0,0-5-1.5A8.13,8.13,0,0,0,189.71,19a11.3,11.3,0,0,0-1.6,3.1c-.36,1.07-.69,2-1,2.89q-2.37,8.14-3.32,12.84a41.85,41.85,0,0,0-1,8.35,22.77,22.77,0,0,0,.32,4.07,18.81,18.81,0,0,0,1.39,4.06c.72,1.57,1.75,3.6,3.11,6.1s3.24,5.88,5.67,10.16q3.21,5.77,5.24,9.63a59.62,59.62,0,0,1,3.21,7.07,38.68,38.68,0,0,1,1.71,6.09,37.16,37.16,0,0,1,.54,6.74,66.24,66.24,0,0,1-.64,8.45q-.65,4.83-1.72,9.64c-.71,3.21-1.46,6.27-2.24,9.2q-1.12,4.15-1.94,6.68c-.07.18-.13.35-.21.53q-1.05,2.3-2.67,5.62a23.21,23.21,0,0,1-5.14,6.75,31.13,31.13,0,0,1-8.66,5.56,32.19,32.19,0,0,1-13.16,2.35c-1.14,0-3.1-.1-5.89-.32a22.66,22.66,0,0,1-8.45-2.46,21.38,21.38,0,0,1-7.59-6.63q-3.33-4.5-3.32-12.84A42.72,42.72,0,0,1,143,126c.35-2.28.88-4.84,1.6-7.7l3.62-16.19a5,5,0,0,1,4.9-3.92h7.66a5,5,0,0,1,4.9,6.13l-3.75,16.55c-.28,1.43-.61,3-1,4.6a21.45,21.45,0,0,0-.53,4.6,10.33,10.33,0,0,0,2.14,6.85,8.93,8.93,0,0,0,6.63,2.35,8.06,8.06,0,0,0,6.84-3.1,27.92,27.92,0,0,0,4.07-9.31c.14-.43.43-1.6.86-3.53s.89-4.1,1.39-6.53.93-5,1.28-7.59a52.29,52.29,0,0,0,.54-7,22.73,22.73,0,0,0-.32-4.06,20.56,20.56,0,0,0-1.4-4.18,67,67,0,0,0-3.21-6.2q-2.13-3.75-5.77-10-4.5-7.48-7.28-13.38a30.94,30.94,0,0,1-2.78-13.37q0-1.28.43-5.67c.28-2.92.78-6.28,1.5-10.06S166.92,27.82,168,24a40.6,40.6,0,0,1,4.17-10A26.87,26.87,0,0,1,178.8,6a26,26,0,0,1,7.38-4.06A30.64,30.64,0,0,1,193.24.32c2.21-.21,4-.32,5.46-.32q11.55,0,17.65,5.14t6.1,14.76a38.19,38.19,0,0,1-.32,4.17c-.21,1.79-.68,4.25-1.39,7.38L220,34.6A5,5,0,0,1,215.09,38.43Z"/><path class="cls-1" d="M274.19,23.59,245.38,149.1a5,5,0,0,1-4.89,3.9H230.25a5,5,0,0,1-4.9-6.15l27.78-121a5,5,0,0,0-4.89-6.14h-9.65a5,5,0,0,1-4.81-6.46l2.36-7.93A5,5,0,0,1,241,1.71h54.79a5,5,0,0,1,4.82,6.45l-2.37,7.94a5,5,0,0,1-4.81,3.59h-14.3A5,5,0,0,0,274.19,23.59Z"/><path class="cls-1" d="M351.17,23.59,322.36,149.1a5,5,0,0,1-4.9,3.9H307.22a5,5,0,0,1-4.89-6.15l27.78-121a5,5,0,0,0-4.89-6.14h-9.65a5,5,0,0,1-4.81-6.46l2.36-7.93a5,5,0,0,1,4.81-3.59h54.79a5,5,0,0,1,4.81,6.45l-2.36,7.94a5,5,0,0,1-4.81,3.59h-14.3A5,5,0,0,0,351.17,23.59Z"/><path class="cls-1" d="M414.55,90.27l-14.33,58.89a5,5,0,0,1-4.88,3.84H385a5,5,0,0,1-4.9-6.12l12.63-56.59a4.92,4.92,0,0,0,.11-1.27l-2.8-81.9a5,5,0,0,1,5-5.19h9.23a5,5,0,0,1,5,5.05l-.25,36.73a5,5,0,0,0,9.56,2.19L438.16,4.79a5,5,0,0,1,4.53-2.86h10.1a5,5,0,0,1,4.44,7.36L415,89.11A5.24,5.24,0,0,0,414.55,90.27Z"/></g></g></svg>